<svg version="1.1" xmlns="http://www.w3.org/2000/svg" viewBox="0 0 1448.1225099042683 1812.8689269721558" width="1448.1225099042683" height="1812.8689269721558" class="excalidraw-svg"><!-- svg-source:excalidraw --><metadata></metadata><defs><style class="style-fonts">
      </style></defs><rect x="0" y="0" width="1448.1225099042683" height="1812.8689269721558" fill="#121212"></rect><g stroke-linecap="round" transform="translate(740.9603773081042 101.34220470693299) rotate(0 106.37385545029949 48.65160830672596)"><path d="M212.75 48.65 C212.75 50.35, 212.55 52.05, 212.16 53.74 C211.78 55.42, 211.19 57.11, 210.42 58.77 C209.65 60.42, 208.69 62.07, 207.54 63.69 C206.4 65.3, 205.06 66.89, 203.55 68.44 C202.04 69.99, 200.35 71.51, 198.5 72.98 C196.64 74.45, 194.61 75.88, 192.43 77.25 C190.25 78.62, 187.91 79.95, 185.43 81.21 C182.94 82.47, 180.31 83.67, 177.55 84.81 C174.8 85.94, 171.9 87.02, 168.9 88.01 C165.9 89.01, 162.77 89.94, 159.56 90.79 C156.35 91.63, 153.03 92.41, 149.64 93.1 C146.25 93.79, 142.77 94.4, 139.25 94.92 C135.72 95.45, 132.12 95.89, 128.49 96.24 C124.86 96.59, 121.18 96.86, 117.49 97.04 C113.81 97.21, 110.08 97.3, 106.37 97.3 C102.67 97.3, 98.94 97.21, 95.25 97.04 C91.57 96.86, 87.88 96.59, 84.26 96.24 C80.63 95.89, 77.03 95.45, 73.5 94.92 C69.98 94.4, 66.49 93.79, 63.11 93.1 C59.72 92.41, 56.4 91.63, 53.19 90.79 C49.98 89.94, 46.85 89.01, 43.85 88.01 C40.85 87.02, 37.95 85.94, 35.2 84.81 C32.44 83.67, 29.8 82.47, 27.32 81.21 C24.84 79.95, 22.49 78.62, 20.32 77.25 C18.14 75.88, 16.1 74.45, 14.25 72.98 C12.4 71.51, 10.7 69.99, 9.2 68.44 C7.69 66.89, 6.35 65.3, 5.21 63.69 C4.06 62.07, 3.1 60.42, 2.32 58.77 C1.55 57.11, 0.97 55.42, 0.58 53.74 C0.2 52.05, 0 50.35, 0 48.65 C0 46.96, 0.2 45.25, 0.58 43.57 C0.97 41.88, 1.55 40.19, 2.32 38.54 C3.1 36.88, 4.06 35.23, 5.21 33.62 C6.35 32.01, 7.69 30.41, 9.2 28.86 C10.7 27.31, 12.4 25.79, 14.25 24.33 C16.1 22.86, 18.14 21.43, 20.32 20.05 C22.49 18.68, 24.84 17.36, 27.32 16.1 C29.8 14.84, 32.44 13.63, 35.2 12.5 C37.95 11.36, 40.85 10.29, 43.85 9.29 C46.85 8.3, 49.98 7.37, 53.19 6.52 C56.4 5.67, 59.72 4.9, 63.11 4.21 C66.49 3.52, 69.98 2.91, 73.5 2.38 C77.03 1.86, 80.63 1.42, 84.26 1.06 C87.88 0.71, 91.57 0.44, 95.25 0.27 C98.94 0.09, 102.67 0, 106.37 0 C110.08 0, 113.81 0.09, 117.49 0.27 C121.18 0.44, 124.86 0.71, 128.49 1.06 C132.12 1.42, 135.72 1.86, 139.25 2.38 C142.77 2.91, 146.25 3.52, 149.64 4.21 C153.03 4.9, 156.35 5.67, 159.56 6.52 C162.77 7.37, 165.9 8.3, 168.9 9.29 C171.9 10.29, 174.8 11.36, 177.55 12.5 C180.31 13.63, 182.94 14.84, 185.43 16.1 C187.91 17.36, 190.25 18.68, 192.43 20.05 C194.61 21.43, 196.64 22.86, 198.5 24.33 C200.35 25.79, 202.04 27.31, 203.55 28.86 C205.06 30.41, 206.4 32.01, 207.54 33.62 C208.69 35.23, 209.65 36.88, 210.42 38.54 C211.19 40.19, 211.78 41.88, 212.16 43.57 C212.55 45.25, 212.65 47.8, 212.75 48.65 C212.84 49.5, 212.84 47.8, 212.75 48.65" stroke="#d3d3d3" stroke-width="2" fill="none"></path></g><g transform="translate(792.6546441660392 133.99193086434127) rotate(0 54.4619140625 16.100000000000023)"><text x="54.4619140625" y="23.660546874999998" font-family="Helvetica, sans-serif, Segoe UI Emoji" font-size="28px" fill="#d3d3d3" text-anchor="middle" style="white-space: pre;" direction="ltr" dominant-baseline="alphabetic">USER In</text></g><g stroke-linecap="round"><g transform="translate(847.2342327584036 204.64539968112126) rotate(0 0.04917094412303413 21.953739487659163)"><path d="M0 0 C0.03 11.65, 0.05 23.3, 0.1 43.91 M0 0 C0.04 16.82, 0.08 33.63, 0.1 43.91" stroke="#d3d3d3" stroke-width="2" fill="none"></path></g><g transform="translate(847.2342327584036 204.64539968112126) rotate(0 0.04917094412303413 21.953739487659163)"><path d="M-7.46 23.29 C-5.45 28.76, -3.45 34.23, 0.1 43.91 M-7.46 23.29 C-4.56 31.19, -1.67 39.08, 0.1 43.91" stroke="#d3d3d3" stroke-width="2" fill="none"></path></g><g transform="translate(847.2342327584036 204.64539968112126) rotate(0 0.04917094412303413 21.953739487659163)"><path d="M7.56 23.26 C5.58 28.74, 3.6 34.22, 0.1 43.91 M7.56 23.26 C4.7 31.17, 1.84 39.08, 0.1 43.91" stroke="#d3d3d3" stroke-width="2" fill="none"></path></g></g><mask></mask><g stroke-linecap="round" transform="translate(730.163235611903 254.5528786564396) rotate(0 117.26933903474668 39.760535893954966)"><path d="M19.88 0 C60.84 0, 101.79 0, 214.66 0 M19.88 0 C74.78 0, 129.68 0, 214.66 0 M214.66 0 C227.91 0, 234.54 6.63, 234.54 19.88 M214.66 0 C227.91 0, 234.54 6.63, 234.54 19.88 M234.54 19.88 C234.54 28.59, 234.54 37.29, 234.54 59.64 M234.54 19.88 C234.54 28.13, 234.54 36.38, 234.54 59.64 M234.54 59.64 C234.54 72.89, 227.91 79.52, 214.66 79.52 M234.54 59.64 C234.54 72.89, 227.91 79.52, 214.66 79.52 M214.66 79.52 C140.96 79.52, 67.25 79.52, 19.88 79.52 M214.66 79.52 C154.83 79.52, 94.99 79.52, 19.88 79.52 M19.88 79.52 C6.63 79.52, 0 72.89, 0 59.64 M19.88 79.52 C6.63 79.52, 0 72.89, 0 59.64 M0 59.64 C0 45.62, 0 31.59, 0 19.88 M0 59.64 C0 49.39, 0 39.13, 0 19.88 M0 19.88 C0 6.63, 6.63 0, 19.88 0 M0 19.88 C0 6.63, 6.63 0, 19.88 0" stroke="#d3d3d3" stroke-width="2" fill="none"></path></g><g transform="translate(769.6327699591496 278.21341455039453) rotate(0 77.7998046875 16.100000000000023)"><text x="77.7998046875" y="23.660546874999998" font-family="Helvetica, sans-serif, Segoe UI Emoji" font-size="28px" fill="#d3d3d3" text-anchor="middle" style="white-space: pre;" direction="ltr" dominant-baseline="alphabetic">Browse Item</text></g><g stroke-linecap="round" transform="translate(503.8924869505608 593.2272175710646) rotate(0 121.97442429089148 47.079557403513604)"><path d="M23.54 0 C66.5 0, 109.45 0, 220.41 0 M23.54 0 C94.33 0, 165.13 0, 220.41 0 M220.41 0 C236.1 0, 243.95 7.85, 243.95 23.54 M220.41 0 C236.1 0, 243.95 7.85, 243.95 23.54 M243.95 23.54 C243.95 34.41, 243.95 45.29, 243.95 70.62 M243.95 23.54 C243.95 38.61, 243.95 53.68, 243.95 70.62 M243.95 70.62 C243.95 86.31, 236.1 94.16, 220.41 94.16 M243.95 70.62 C243.95 86.31, 236.1 94.16, 220.41 94.16 M220.41 94.16 C173.01 94.16, 125.61 94.16, 23.54 94.16 M220.41 94.16 C166.12 94.16, 111.82 94.16, 23.54 94.16 M23.54 94.16 C7.85 94.16, 0 86.31, 0 70.62 M23.54 94.16 C7.85 94.16, 0 86.31, 0 70.62 M0 70.62 C0 58.31, 0 46, 0 23.54 M0 70.62 C0 54.91, 0 39.19, 0 23.54 M0 23.54 C0 7.85, 7.85 0, 23.54 0 M0 23.54 C0 7.85, 7.85 0, 23.54 0" stroke="#d3d3d3" stroke-width="2" fill="none"></path></g><g transform="translate(542.6188643664523 624.2067749745781) rotate(0 83.248046875 16.099999999999994)"><text x="83.248046875" y="23.660546874999998" font-family="Helvetica, sans-serif, Segoe UI Emoji" font-size="28px" fill="#d3d3d3" text-anchor="middle" style="white-space: pre;" direction="ltr" dominant-baseline="alphabetic">Reserve Item</text></g><g stroke-linecap="round"><g transform="translate(847.7844239336084 492.2555773135207) rotate(0 -111.01076244813979 46.93358751834555)"><path d="M0 0 C0 11.77, 0 23.55, 0 32.01 M0 0 C0 7.4, 0 14.81, 0 32.01 M0 32.01 C0 42.68, -5.33 48.01, -16 48.01 M0 32.01 C0 42.68, -5.33 48.01, -16 48.01 M-16 48.01 C-60.49 48.01, -104.98 48.01, -206.02 48.01 M-16 48.01 C-75.08 48.01, -134.15 48.01, -206.02 48.01 M-206.02 48.01 C-216.69 48.01, -222.02 53.35, -222.02 64.01 M-206.02 48.01 C-216.69 48.01, -222.02 53.35, -222.02 64.01 M-222.02 64.01 C-222.02 72.38, -222.02 80.76, -222.02 93.87 M-222.02 64.01 C-222.02 70.27, -222.02 76.52, -222.02 93.87" stroke="#d3d3d3" stroke-width="2" fill="none"></path></g><g transform="translate(847.7844239336084 492.2555773135207) rotate(0 -111.01076244813979 46.93358751834555)"><path d="M-229.86 72.32 C-226.98 80.25, -224.09 88.17, -222.02 93.87 M-229.86 72.32 C-228.05 77.31, -226.24 82.29, -222.02 93.87" stroke="#d3d3d3" stroke-width="2" fill="none"></path></g><g transform="translate(847.7844239336084 492.2555773135207) rotate(0 -111.01076244813979 46.93358751834555)"><path d="M-214.18 72.32 C-217.06 80.25, -219.95 88.17, -222.02 93.87 M-214.18 72.32 C-215.99 77.31, -217.81 82.29, -222.02 93.87" stroke="#d3d3d3" stroke-width="2" fill="none"></path></g></g><mask></mask><g stroke-linecap="round"><g transform="translate(625.7628990373289 694.4907975989448) rotate(0 -131.25949301636155 50.02570408149471)"><path d="M0 0 C0 4.98, 0 9.96, 0 12.8 M0 0 C0 4.63, 0 9.27, 0 12.8 M0 12.8 C0 21.33, -4.27 25.6, -12.8 25.6 M0 12.8 C0 21.33, -4.27 25.6, -12.8 25.6 M-12.8 25.6 C-66.77 25.6, -120.75 25.6, -246.52 25.6 M-12.8 25.6 C-103.94 25.6, -195.08 25.6, -246.52 25.6 M-246.52 25.6 C-257.19 25.6, -262.52 30.93, -262.52 41.6 M-246.52 25.6 C-257.19 25.6, -262.52 30.93, -262.52 41.6 M-262.52 41.6 C-262.52 53.31, -262.52 65.02, -262.52 100.05 M-262.52 41.6 C-262.52 64.09, -262.52 86.58, -262.52 100.05" stroke="#d3d3d3" stroke-width="2" fill="none"></path></g><g transform="translate(625.7628990373289 694.4907975989448) rotate(0 -131.25949301636155 50.02570408149471)"><path d="M-271.07 76.56 C-267.74 85.7, -264.41 94.84, -262.52 100.05 M-271.07 76.56 C-267.97 85.06, -264.88 93.57, -262.52 100.05" stroke="#d3d3d3" stroke-width="2" fill="none"></path></g><g transform="translate(625.7628990373289 694.4907975989448) rotate(0 -131.25949301636155 50.02570408149471)"><path d="M-253.97 76.56 C-257.3 85.7, -260.62 94.84, -262.52 100.05 M-253.97 76.56 C-257.06 85.06, -260.16 93.57, -262.52 100.05" stroke="#d3d3d3" stroke-width="2" fill="none"></path></g></g><mask></mask><g stroke-linecap="round" transform="translate(589.9586624385024 1073.8871971717817) rotate(0 126.67950954703639 51.501319515020725)"><path d="M25.75 0 C69.57 0, 113.39 0, 227.61 0 M25.75 0 C79.02 0, 132.3 0, 227.61 0 M227.61 0 C244.78 0, 253.36 8.58, 253.36 25.75 M227.61 0 C244.78 0, 253.36 8.58, 253.36 25.75 M253.36 25.75 C253.36 41.86, 253.36 57.98, 253.36 77.25 M253.36 25.75 C253.36 45.31, 253.36 64.87, 253.36 77.25 M253.36 77.25 C253.36 94.42, 244.78 103, 227.61 103 M253.36 77.25 C253.36 94.42, 244.78 103, 227.61 103 M227.61 103 C151.55 103, 75.48 103, 25.75 103 M227.61 103 C155.59 103, 83.58 103, 25.75 103 M25.75 103 C8.58 103, 0 94.42, 0 77.25 M25.75 103 C8.58 103, 0 94.42, 0 77.25 M0 77.25 C0 60.34, 0 43.44, 0 25.75 M0 77.25 C0 65.13, 0 53, 0 25.75 M0 25.75 C0 8.58, 8.58 0, 25.75 0 M0 25.75 C0 8.58, 8.58 0, 25.75 0" stroke="#d3d3d3" stroke-width="2" fill="none"></path></g><g transform="translate(641.9350469855387 1093.1885166868024) rotate(0 74.703125 32.19999999999999)"><text x="74.703125" y="23.660546874999998" font-family="Helvetica, sans-serif, Segoe UI Emoji" font-size="28px" fill="#d3d3d3" text-anchor="middle" style="white-space: pre;" direction="ltr" dominant-baseline="alphabetic">Cancel</text><text x="74.703125" y="55.860546875" font-family="Helvetica, sans-serif, Segoe UI Emoji" font-size="28px" fill="#d3d3d3" text-anchor="middle" style="white-space: pre;" direction="ltr" dominant-baseline="alphabetic">Reservation</text></g><g stroke-linecap="round" transform="translate(730.6150848988618 406.73450552561053) rotate(0 117.26933903474668 39.760535893954966)"><path d="M19.88 0 C67.4 0, 114.91 0, 214.66 0 M19.88 0 C96.42 0, 172.96 0, 214.66 0 M214.66 0 C227.91 0, 234.54 6.63, 234.54 19.88 M214.66 0 C227.91 0, 234.54 6.63, 234.54 19.88 M234.54 19.88 C234.54 28.37, 234.54 36.85, 234.54 59.64 M234.54 19.88 C234.54 32.3, 234.54 44.73, 234.54 59.64 M234.54 59.64 C234.54 72.89, 227.91 79.52, 214.66 79.52 M234.54 59.64 C234.54 72.89, 227.91 79.52, 214.66 79.52 M214.66 79.52 C153.76 79.52, 92.85 79.52, 19.88 79.52 M214.66 79.52 C164.93 79.52, 115.21 79.52, 19.88 79.52 M19.88 79.52 C6.63 79.52, 0 72.89, 0 59.64 M19.88 79.52 C6.63 79.52, 0 72.89, 0 59.64 M0 59.64 C0 49.77, 0 39.9, 0 19.88 M0 59.64 C0 49.52, 0 39.4, 0 19.88 M0 19.88 C0 6.63, 6.63 0, 19.88 0 M0 19.88 C0 6.63, 6.63 0, 19.88 0" stroke="#d3d3d3" stroke-width="2" fill="none"></path></g><g transform="translate(777.8570801836086 430.3950414195655) rotate(0 70.02734375 16.099999999999994)"><text x="70.02734375" y="23.660546874999998" font-family="Helvetica, sans-serif, Segoe UI Emoji" font-size="28px" fill="#d3d3d3" text-anchor="middle" style="white-space: pre;" direction="ltr" dominant-baseline="alphabetic">Select Item</text></g><g stroke-linecap="round"><g transform="translate(847.3325746466496 340.07395044434975) rotate(0 0.22592464347940222 30.33027754063039)"><path d="M0 0 C0.12 16.56, 0.25 33.12, 0.45 60.66 M0 0 C0.16 20.98, 0.31 41.95, 0.45 60.66" stroke="#d3d3d3" stroke-width="2" fill="none"></path></g><g transform="translate(847.3325746466496 340.07395044434975) rotate(0 0.22592464347940222 30.33027754063039)"><path d="M-8.27 37.23 C-5.89 43.63, -3.51 50.03, 0.45 60.66 M-8.27 37.23 C-5.26 45.33, -2.24 53.43, 0.45 60.66" stroke="#d3d3d3" stroke-width="2" fill="none"></path></g><g transform="translate(847.3325746466496 340.07395044434975) rotate(0 0.22592464347940222 30.33027754063039)"><path d="M8.83 37.11 C6.54 43.54, 4.25 49.97, 0.45 60.66 M8.83 37.11 C5.93 45.25, 3.04 53.4, 0.45 60.66" stroke="#d3d3d3" stroke-width="2" fill="none"></path></g></g><mask></mask><g stroke-linecap="round"><g transform="translate(349.98121891436597 903.3759552339194) rotate(0 0.351339118056444 37.29526702095172)"><path d="M0 0 C0.26 27.72, 0.52 55.43, 0.7 74.59 M0 0 C0.25 26.61, 0.5 53.21, 0.7 74.59" stroke="#d3d3d3" stroke-width="2" fill="none"></path></g><g transform="translate(349.98121891436597 903.3759552339194) rotate(0 0.351339118056444 37.29526702095172)"><path d="M-8.07 51.18 C-4.81 59.88, -1.55 68.58, 0.7 74.59 M-8.07 51.18 C-4.94 59.53, -1.81 67.88, 0.7 74.59" stroke="#d3d3d3" stroke-width="2" fill="none"></path></g><g transform="translate(349.98121891436597 903.3759552339194) rotate(0 0.351339118056444 37.29526702095172)"><path d="M9.03 51.02 C5.94 59.78, 2.84 68.54, 0.7 74.59 M9.03 51.02 C6.06 59.43, 3.09 67.83, 0.7 74.59" stroke="#d3d3d3" stroke-width="2" fill="none"></path></g></g><mask></mask><g stroke-linecap="round"><g transform="translate(350.68389715047886 1271.0854447138609) rotate(0 -0.01381024799906072 44.998525225893275)"><path d="M0 0 C-0.01 20.15, -0.01 40.31, -0.03 90 M0 0 C-0.01 26.5, -0.02 52.99, -0.03 90" stroke="#d3d3d3" stroke-width="2" fill="none"></path></g><g transform="translate(350.68389715047886 1271.0854447138609) rotate(0 -0.01381024799906072 44.998525225893275)"><path d="M-8.57 66.5 C-6.66 71.76, -4.74 77.02, -0.03 90 M-8.57 66.5 C-6.06 73.42, -3.54 80.34, -0.03 90" stroke="#d3d3d3" stroke-width="2" fill="none"></path></g><g transform="translate(350.68389715047886 1271.0854447138609) rotate(0 -0.01381024799906072 44.998525225893275)"><path d="M8.53 66.51 C6.61 71.77, 4.7 77.03, -0.03 90 M8.53 66.51 C6.01 73.42, 3.49 80.34, -0.03 90" stroke="#d3d3d3" stroke-width="2" fill="none"></path></g></g><mask></mask><g stroke-linecap="round"><g transform="translate(480.28967011420025 1124.4260640133919) rotate(0 51.59376391475172 0.4168496873115828)"><path d="M0 0 C39.69 0.32, 79.37 0.64, 103.19 0.83 M0 0 C37.05 0.3, 74.1 0.6, 103.19 0.83" stroke="#d3d3d3" stroke-width="2" fill="none"></path></g><g transform="translate(480.28967011420025 1124.4260640133919) rotate(0 51.59376391475172 0.4168496873115828)"><path d="M79.63 9.19 C88.69 5.98, 97.75 2.76, 103.19 0.83 M79.63 9.19 C88.09 6.19, 96.55 3.19, 103.19 0.83" stroke="#d3d3d3" stroke-width="2" fill="none"></path></g><g transform="translate(480.28967011420025 1124.4260640133919) rotate(0 51.59376391475172 0.4168496873115828)"><path d="M79.77 -7.91 C88.77 -4.54, 97.78 -1.18, 103.19 0.83 M79.77 -7.91 C88.18 -4.77, 96.59 -1.63, 103.19 0.83" stroke="#d3d3d3" stroke-width="2" fill="none"></path></g></g><mask></mask><g stroke-linecap="round" transform="translate(220.95074281434324 1367.2402759114834) rotate(0 129.81623305113294 40.8061103953205)"><path d="M20.4 0 C71.07 0, 121.73 0, 239.23 0 M20.4 0 C81.45 0, 142.49 0, 239.23 0 M239.23 0 C252.83 0, 259.63 6.8, 259.63 20.4 M239.23 0 C252.83 0, 259.63 6.8, 259.63 20.4 M259.63 20.4 C259.63 33.08, 259.63 45.75, 259.63 61.21 M259.63 20.4 C259.63 32.98, 259.63 45.57, 259.63 61.21 M259.63 61.21 C259.63 74.81, 252.83 81.61, 239.23 81.61 M259.63 61.21 C259.63 74.81, 252.83 81.61, 239.23 81.61 M239.23 81.61 C167.81 81.61, 96.39 81.61, 20.4 81.61 M239.23 81.61 C182.61 81.61, 125.99 81.61, 20.4 81.61 M20.4 81.61 C6.8 81.61, 0 74.81, 0 61.21 M20.4 81.61 C6.8 81.61, 0 74.81, 0 61.21 M0 61.21 C0 50.51, 0 39.81, 0 20.4 M0 61.21 C0 47.53, 0 33.86, 0 20.4 M0 20.4 C0 6.8, 6.8 0, 20.4 0 M0 20.4 C0 6.8, 6.8 0, 20.4 0" stroke="#d3d3d3" stroke-width="2" fill="none"></path></g><g transform="translate(272.1673664904762 1391.946386306804) rotate(0 78.599609375 16.100000000000023)"><text x="78.599609375" y="23.660546874999998" font-family="Helvetica, sans-serif, Segoe UI Emoji" font-size="28px" fill="#d3d3d3" text-anchor="middle" style="white-space: pre;" direction="ltr" dominant-baseline="alphabetic">Booked Item</text></g><g transform="translate(515.4482836418008 1064.963271459275) rotate(0 17.896484375 16.099999999999994)"><text x="17.896484375" y="23.660546874999998" font-family="Helvetica, sans-serif, Segoe UI Emoji" font-size="28px" fill="#d3d3d3" text-anchor="middle" style="white-space: pre;" direction="ltr" dominant-baseline="alphabetic">No</text></g><g stroke-linecap="round"><g transform="translate(625.7628990373289 694.4907975989448) rotate(0 0.34526924855447305 100.06093470029248)"><path d="M0 0 C0.16 46.22, 0.32 92.45, 0.69 200.12 M0 0 C0.22 64.05, 0.44 128.1, 0.69 200.12" stroke="#d3d3d3" stroke-width="2" fill="none"></path></g><g transform="translate(625.7628990373289 694.4907975989448) rotate(0 0.34526924855447305 100.06093470029248)"><path d="M-7.94 176.66 C-5.95 182.08, -3.95 187.5, 0.69 200.12 M-7.94 176.66 C-5.18 184.17, -2.42 191.68, 0.69 200.12" stroke="#d3d3d3" stroke-width="2" fill="none"></path></g><g transform="translate(625.7628990373289 694.4907975989448) rotate(0 0.34526924855447305 100.06093470029248)"><path d="M9.16 176.6 C7.2 182.03, 5.25 187.47, 0.69 200.12 M9.16 176.6 C6.45 184.13, 3.74 191.66, 0.69 200.12" stroke="#d3d3d3" stroke-width="2" fill="none"></path></g></g><mask></mask><g stroke-linecap="round" transform="translate(223.93207522580087 801.6400589883683) rotate(0 126.15672229635362 47.31902150955864)"><path d="M23.66 0 C71.66 0, 119.65 0, 228.65 0 M23.66 0 C87.39 0, 151.12 0, 228.65 0 M228.65 0 C244.43 0, 252.31 7.89, 252.31 23.66 M228.65 0 C244.43 0, 252.31 7.89, 252.31 23.66 M252.31 23.66 C252.31 36.93, 252.31 50.2, 252.31 70.98 M252.31 23.66 C252.31 33.57, 252.31 43.48, 252.31 70.98 M252.31 70.98 C252.31 86.75, 244.43 94.64, 228.65 94.64 M252.31 70.98 C252.31 86.75, 244.43 94.64, 228.65 94.64 M228.65 94.64 C171.32 94.64, 113.99 94.64, 23.66 94.64 M228.65 94.64 C166.23 94.64, 103.81 94.64, 23.66 94.64 M23.66 94.64 C7.89 94.64, 0 86.75, 0 70.98 M23.66 94.64 C7.89 94.64, 0 86.75, 0 70.98 M0 70.98 C0 53.3, 0 35.62, 0 23.66 M0 70.98 C0 60.02, 0 49.07, 0 23.66 M0 23.66 C0 7.89, 7.89 0, 23.66 0 M0 23.66 C0 7.89, 7.89 0, 23.66 0" stroke="#d3d3d3" stroke-width="2" fill="none"></path></g><g transform="translate(243.46184439715444 832.8590804979269) rotate(0 106.626953125 16.099999999999994)"><text x="106.626953125" y="23.660546874999998" font-family="Helvetica, sans-serif, Segoe UI Emoji" font-size="28px" fill="#d3d3d3" text-anchor="middle" style="white-space: pre;" direction="ltr" dominant-baseline="alphabetic">Proceed Booking</text></g><g stroke-linecap="round" transform="translate(498.31492804497424 901.7105202259636) rotate(0 128.24787129908464 47.31902150955864)"><path d="M23.66 0 C71.97 0, 120.27 0, 232.84 0 M23.66 0 C105.23 0, 186.8 0, 232.84 0 M232.84 0 C248.61 0, 256.5 7.89, 256.5 23.66 M232.84 0 C248.61 0, 256.5 7.89, 256.5 23.66 M256.5 23.66 C256.5 33.14, 256.5 42.62, 256.5 70.98 M256.5 23.66 C256.5 41.87, 256.5 60.08, 256.5 70.98 M256.5 70.98 C256.5 86.75, 248.61 94.64, 232.84 94.64 M256.5 70.98 C256.5 86.75, 248.61 94.64, 232.84 94.64 M232.84 94.64 C161.96 94.64, 91.08 94.64, 23.66 94.64 M232.84 94.64 C162.69 94.64, 92.54 94.64, 23.66 94.64 M23.66 94.64 C7.89 94.64, 0 86.75, 0 70.98 M23.66 94.64 C7.89 94.64, 0 86.75, 0 70.98 M0 70.98 C0 58.69, 0 46.39, 0 23.66 M0 70.98 C0 59.85, 0 48.72, 0 23.66 M0 23.66 C0 7.89, 7.89 0, 23.66 0 M0 23.66 C0 7.89, 7.89 0, 23.66 0" stroke="#d3d3d3" stroke-width="2" fill="none"></path></g><g transform="translate(533.1770571565589 932.9295417355222) rotate(0 93.3857421875 16.099999999999994)"><text x="93.3857421875" y="23.660546874999998" font-family="Helvetica, sans-serif, Segoe UI Emoji" font-size="28px" fill="#d3d3d3" text-anchor="middle" style="white-space: pre;" direction="ltr" dominant-baseline="alphabetic">Manual Cancel</text></g><g stroke-linecap="round" transform="translate(659.9560608298193 1539.4259569434707) rotate(0 56.020807728584884 38.299939977706)"><path d="M112.04 38.3 C112.04 39.97, 111.88 41.65, 111.56 43.3 C111.24 44.95, 110.76 46.6, 110.13 48.21 C109.5 49.82, 108.71 51.42, 107.78 52.96 C106.84 54.5, 105.75 56.01, 104.54 57.45 C103.32 58.89, 101.95 60.29, 100.47 61.62 C98.98 62.94, 97.36 64.2, 95.63 65.38 C93.91 66.56, 92.06 67.67, 90.12 68.69 C88.19 69.7, 86.14 70.64, 84.03 71.47 C81.92 72.3, 79.71 73.05, 77.46 73.68 C75.21 74.32, 72.87 74.86, 70.52 75.29 C68.17 75.73, 65.75 76.05, 63.33 76.27 C60.92 76.49, 58.46 76.6, 56.02 76.6 C53.58 76.6, 51.13 76.49, 48.71 76.27 C46.29 76.05, 43.88 75.73, 41.52 75.29 C39.17 74.86, 36.83 74.32, 34.58 73.68 C32.33 73.05, 30.12 72.3, 28.01 71.47 C25.9 70.64, 23.85 69.7, 21.92 68.69 C19.98 67.67, 18.13 66.56, 16.41 65.38 C14.68 64.2, 13.06 62.94, 11.58 61.62 C10.09 60.29, 8.72 58.89, 7.51 57.45 C6.29 56.01, 5.2 54.5, 4.26 52.96 C3.33 51.42, 2.54 49.82, 1.91 48.21 C1.28 46.6, 0.8 44.95, 0.48 43.3 C0.16 41.65, 0 39.97, 0 38.3 C0 36.63, 0.16 34.95, 0.48 33.3 C0.8 31.65, 1.28 30, 1.91 28.39 C2.54 26.78, 3.33 25.18, 4.26 23.64 C5.2 22.1, 6.29 20.59, 7.51 19.15 C8.72 17.71, 10.09 16.31, 11.58 14.98 C13.06 13.66, 14.68 12.4, 16.41 11.22 C18.13 10.04, 19.98 8.93, 21.92 7.91 C23.85 6.9, 25.9 5.96, 28.01 5.13 C30.12 4.3, 32.33 3.55, 34.58 2.92 C36.83 2.28, 39.17 1.74, 41.52 1.31 C43.88 0.87, 46.29 0.55, 48.71 0.33 C51.13 0.11, 53.58 0, 56.02 0 C58.46 0, 60.92 0.11, 63.33 0.33 C65.75 0.55, 68.17 0.87, 70.52 1.31 C72.87 1.74, 75.21 2.28, 77.46 2.92 C79.71 3.55, 81.92 4.3, 84.03 5.13 C86.14 5.96, 88.19 6.9, 90.12 7.91 C92.06 8.93, 93.91 10.04, 95.63 11.22 C97.36 12.4, 98.98 13.66, 100.47 14.98 C101.95 16.31, 103.32 17.71, 104.54 19.15 C105.75 20.59, 106.84 22.1, 107.78 23.64 C108.71 25.18, 109.5 26.78, 110.13 28.39 C110.76 30, 111.24 31.65, 111.56 33.3 C111.88 34.95, 111.96 37.47, 112.04 38.3 C112.12 39.13, 112.12 37.47, 112.04 38.3" stroke="#d3d3d3" stroke-width="2" fill="none"></path></g><g transform="translate(693.2987458384741 1561.543749643903) rotate(0 22.5654296875 16.100000000000023)"><text x="22.5654296875" y="23.660546874999998" font-family="Helvetica, sans-serif, Segoe UI Emoji" font-size="28px" fill="#d3d3d3" text-anchor="middle" style="white-space: pre;" direction="ltr" dominant-baseline="alphabetic">Out</text></g><g stroke-linecap="round" transform="translate(781.4405015779371 792.6961344668302) rotate(0 129.29344580045017 70.569681267069)"><path d="M32 0 C73.53 0, 115.07 0, 226.59 0 M32 0 C92.8 0, 153.61 0, 226.59 0 M226.59 0 C247.92 0, 258.59 10.67, 258.59 32 M226.59 0 C247.92 0, 258.59 10.67, 258.59 32 M258.59 32 C258.59 56.12, 258.59 80.24, 258.59 109.14 M258.59 32 C258.59 51.69, 258.59 71.39, 258.59 109.14 M258.59 109.14 C258.59 130.47, 247.92 141.14, 226.59 141.14 M258.59 109.14 C258.59 130.47, 247.92 141.14, 226.59 141.14 M226.59 141.14 C178.29 141.14, 130 141.14, 32 141.14 M226.59 141.14 C177.06 141.14, 127.53 141.14, 32 141.14 M32 141.14 C10.67 141.14, 0 130.47, 0 109.14 M32 141.14 C10.67 141.14, 0 130.47, 0 109.14 M0 109.14 C0 93.36, 0 77.58, 0 32 M0 109.14 C0 82.77, 0 56.39, 0 32 M0 32 C0 10.67, 10.67 0, 32 0 M0 32 C0 10.67, 10.67 0, 32 0" stroke="#d3d3d3" stroke-width="2" fill="none"></path></g><g transform="translate(801.5435176908873 831.0658157338993) rotate(0 109.1904296875 32.19999999999999)"><text x="109.1904296875" y="23.660546874999998" font-family="Helvetica, sans-serif, Segoe UI Emoji" font-size="28px" fill="#d3d3d3" text-anchor="middle" style="white-space: pre;" direction="ltr" dominant-baseline="alphabetic">Reservation</text><text x="109.1904296875" y="55.860546875" font-family="Helvetica, sans-serif, Segoe UI Emoji" font-size="28px" fill="#d3d3d3" text-anchor="middle" style="white-space: pre;" direction="ltr" dominant-baseline="alphabetic">Expired [Timeout]</text></g><g stroke-linecap="round"><g transform="translate(350.65627665448073 1455.0102774479606) rotate(0 151.649971095785 61.307809736608135)"><path d="M0 0 C0 38.54, 0 77.08, 0 106.62 M0 0 C0 34.79, 0 69.58, 0 106.62 M0 106.62 C0 117.28, 5.33 122.62, 16 122.62 M0 106.62 C0 117.28, 5.33 122.62, 16 122.62 M16 122.62 C128.13 122.62, 240.26 122.62, 303.3 122.62 M16 122.62 C125.85 122.62, 235.69 122.62, 303.3 122.62" stroke="#d3d3d3" stroke-width="2" fill="none"></path></g><g transform="translate(350.65627665448073 1455.0102774479606) rotate(0 151.649971095785 61.307809736608135)"><path d="M279.81 131.17 C288.3 128.08, 296.79 124.98, 303.3 122.62 M279.81 131.17 C287.47 128.38, 295.14 125.59, 303.3 122.62" stroke="#d3d3d3" stroke-width="2" fill="none"></path></g><g transform="translate(350.65627665448073 1455.0102774479606) rotate(0 151.649971095785 61.307809736608135)"><path d="M279.81 114.07 C288.3 117.16, 296.79 120.25, 303.3 122.62 M279.81 114.07 C287.47 116.86, 295.14 119.65, 303.3 122.62" stroke="#d3d3d3" stroke-width="2" fill="none"></path></g></g><mask></mask><g stroke-linecap="round"><g transform="translate(623.8770313229891 675.9884314916546) rotate(0 135.6517112031439 54.67195507365377)"><path d="M0 0 C0 6.6, 0 13.19, 0 28.19 M0 0 C0 7.41, 0 14.83, 0 28.19 M0 28.19 C0 38.86, 5.33 44.19, 16 44.19 M0 28.19 C0 38.86, 5.33 44.19, 16 44.19 M16 44.19 C93.71 44.19, 171.42 44.19, 255.3 44.19 M16 44.19 C89.87 44.19, 163.74 44.19, 255.3 44.19 M255.3 44.19 C265.97 44.19, 271.3 49.53, 271.3 60.19 M255.3 44.19 C265.97 44.19, 271.3 49.53, 271.3 60.19 M271.3 60.19 C271.3 72.62, 271.3 85.05, 271.3 109.34 M271.3 60.19 C271.3 76.6, 271.3 93.01, 271.3 109.34" stroke="#d3d3d3" stroke-width="2" fill="none"></path></g><g transform="translate(623.8770313229891 675.9884314916546) rotate(0 135.6517112031439 54.67195507365377)"><path d="M262.75 85.85 C264.75 91.35, 266.75 96.85, 271.3 109.34 M262.75 85.85 C265 92.03, 267.25 98.21, 271.3 109.34" stroke="#d3d3d3" stroke-width="2" fill="none"></path></g><g transform="translate(623.8770313229891 675.9884314916546) rotate(0 135.6517112031439 54.67195507365377)"><path d="M279.85 85.85 C277.85 91.35, 275.85 96.85, 271.3 109.34 M279.85 85.85 C277.61 92.03, 275.36 98.21, 271.3 109.34" stroke="#d3d3d3" stroke-width="2" fill="none"></path></g></g><mask></mask><g stroke-linecap="round"><g transform="translate(716.5301475772922 1184.615034129076) rotate(0 -0.3266395094439929 174.4054901989825)"><path d="M0 0 C-0.14 73.12, -0.27 146.25, -0.65 348.81 M0 0 C-0.24 127, -0.48 254, -0.65 348.81" stroke="#d3d3d3" stroke-width="2" fill="none"></path></g><g transform="translate(716.5301475772922 1184.615034129076) rotate(0 -0.3266395094439929 174.4054901989825)"><path d="M-9.16 325.3 C-7.38 330.23, -5.59 335.16, -0.65 348.81 M-9.16 325.3 C-6.06 333.86, -2.97 342.42, -0.65 348.81" stroke="#d3d3d3" stroke-width="2" fill="none"></path></g><g transform="translate(716.5301475772922 1184.615034129076) rotate(0 -0.3266395094439929 174.4054901989825)"><path d="M7.94 325.33 C6.14 330.26, 4.34 335.18, -0.65 348.81 M7.94 325.33 C4.81 333.88, 1.68 342.43, -0.65 348.81" stroke="#d3d3d3" stroke-width="2" fill="none"></path></g></g><mask></mask><g stroke-linecap="round" transform="translate(219.00054932392027 974.5259669948418) rotate(0 131.783213164522 150)"><path d="M165 37.75 C186.08 62.03, 207.16 86.3, 230.57 113.25 M165 37.75 C182.6 58.01, 200.19 78.28, 230.57 113.25 M230.57 113.25 C263.57 151, 263.57 151, 230.57 188.75 M230.57 113.25 C263.57 151, 263.57 151, 230.57 188.75 M230.57 188.75 C210.45 211.3, 190.33 233.86, 165 262.25 M230.57 188.75 C212.99 208.45, 195.42 228.15, 165 262.25 M165 262.25 C132 300, 132 300, 99 262.25 M165 262.25 C132 300, 132 300, 99 262.25 M99 262.25 C79.88 240.96, 60.76 219.67, 33 188.75 M99 262.25 C74.75 235.25, 50.5 208.24, 33 188.75 M33 188.75 C0 151, 0 151, 33 113.25 M33 188.75 C0 151, 0 151, 33 113.25 M33 113.25 C53.44 89.87, 73.88 66.49, 99 37.75 M33 113.25 C56.88 85.93, 80.76 58.62, 99 37.75 M99 37.75 C132 0, 132 0, 165 37.75 M99 37.75 C132 0, 132 0, 165 37.75" stroke="#d3d3d3" stroke-width="2" fill="none"></path></g><g transform="translate(295.6441090311813 1092.3259669948418) rotate(0 55.248046875 32.19999999999999)"><text x="55.248046875" y="23.660546874999998" font-family="Helvetica, sans-serif, Segoe UI Emoji" font-size="28px" fill="#d3d3d3" text-anchor="middle" style="white-space: pre;" direction="ltr" dominant-baseline="alphabetic">Payment</text><text x="55.248046875" y="55.860546875" font-family="Helvetica, sans-serif, Segoe UI Emoji" font-size="28px" fill="#d3d3d3" text-anchor="middle" style="white-space: pre;" direction="ltr" dominant-baseline="alphabetic">Success</text></g><g stroke-linecap="round"><g transform="translate(626.4534375344379 1003.4464164715146) rotate(0 45.038355021427094 31.35779138650703)"><path d="M0 0 C0 4.89, 0 9.78, 0 15.75 M0 0 C0 4.86, 0 9.71, 0 15.75 M0 15.75 C0 26.25, 5.25 31.5, 15.75 31.5 M0 15.75 C0 26.25, 5.25 31.5, 15.75 31.5 M15.75 31.5 C34.91 31.5, 54.08 31.5, 74.47 31.5 M15.75 31.5 C30.94 31.5, 46.14 31.5, 74.47 31.5 M74.47 31.5 C84.87 31.5, 90.08 36.7, 90.08 47.11 M74.47 31.5 C84.87 31.5, 90.08 36.7, 90.08 47.11 M90.08 47.11 C90.08 51.2, 90.08 55.29, 90.08 62.72 M90.08 47.11 C90.08 52.34, 90.08 57.57, 90.08 62.72" stroke="#d3d3d3" stroke-width="2" fill="none"></path></g><g transform="translate(626.4534375344379 1003.4464164715146) rotate(0 45.038355021427094 31.35779138650703)"><path d="M84.74 48.05 C86.4 52.6, 88.05 57.16, 90.08 62.72 M84.74 48.05 C86.38 52.57, 88.03 57.09, 90.08 62.72" stroke="#d3d3d3" stroke-width="2" fill="none"></path></g><g transform="translate(626.4534375344379 1003.4464164715146) rotate(0 45.038355021427094 31.35779138650703)"><path d="M95.41 48.05 C93.76 52.6, 92.1 57.16, 90.08 62.72 M95.41 48.05 C93.77 52.57, 92.12 57.09, 90.08 62.72" stroke="#d3d3d3" stroke-width="2" fill="none"></path></g></g><mask></mask><g stroke-linecap="round"><g transform="translate(910.6236939678499 941.1992898288363) rotate(0 -97.04677319527897 62.481354707846165)"><path d="M0 0 C0 29.42, 0 58.84, 0 77.75 M0 0 C0 23.88, 0 47.77, 0 77.75 M0 77.75 C0 88.42, -5.33 93.75, -16 93.75 M0 77.75 C0 88.42, -5.33 93.75, -16 93.75 M-16 93.75 C-73.32 93.75, -130.63 93.75, -178.49 93.75 M-16 93.75 C-57.91 93.75, -99.82 93.75, -178.49 93.75 M-178.49 93.75 C-188.89 93.75, -194.09 98.95, -194.09 109.36 M-178.49 93.75 C-188.89 93.75, -194.09 98.95, -194.09 109.36 M-194.09 109.36 C-194.09 113.55, -194.09 117.74, -194.09 124.96 M-194.09 109.36 C-194.09 112.49, -194.09 115.63, -194.09 124.96" stroke="#d3d3d3" stroke-width="2" fill="none"></path></g><g transform="translate(910.6236939678499 941.1992898288363) rotate(0 -97.04677319527897 62.481354707846165)"><path d="M-199.43 110.3 C-197.41 115.85, -195.39 121.4, -194.09 124.96 M-199.43 110.3 C-197.79 114.8, -196.15 119.31, -194.09 124.96" stroke="#d3d3d3" stroke-width="2" fill="none"></path></g><g transform="translate(910.6236939678499 941.1992898288363) rotate(0 -97.04677319527897 62.481354707846165)"><path d="M-188.76 110.3 C-190.78 115.85, -192.8 121.4, -194.09 124.96 M-188.76 110.3 C-190.4 114.8, -192.04 119.31, -194.09 124.96" stroke="#d3d3d3" stroke-width="2" fill="none"></path></g></g><mask></mask><g transform="translate(287.40132300134064 1274.2733932380033) rotate(0 22.8388671875 16.099999999999994)"><text x="22.8388671875" y="23.660546874999998" font-family="Helvetica, sans-serif, Segoe UI Emoji" font-size="28px" fill="#d3d3d3" text-anchor="middle" style="white-space: pre;" direction="ltr" dominant-baseline="alphabetic">Yes</text></g><g stroke-linecap="round"><g transform="translate(847.7844239336084 492.2555773135207) rotate(0 103.51355975489679 542.6851598038281)"><path d="M0 0 C0 7.93, 0 15.86, 0 28.27 M0 0 C0 5.92, 0 11.84, 0 28.27 M0 28.27 C0 38.94, 5.33 44.27, 16 44.27 M0 28.27 C0 38.94, 5.33 44.27, 16 44.27 M16 44.27 C84.47 44.27, 152.94 44.27, 260.81 44.27 M16 44.27 C90.54 44.27, 165.09 44.27, 260.81 44.27 M260.81 44.27 C271.48 44.27, 276.81 49.61, 276.81 60.27 M260.81 44.27 C271.48 44.27, 276.81 49.61, 276.81 60.27 M276.81 60.27 C276.81 437.32, 276.81 814.37, 276.81 1069.37 M276.81 60.27 C276.81 293.93, 276.81 527.58, 276.81 1069.37 M276.81 1069.37 C276.81 1080.04, 271.48 1085.37, 260.81 1085.37 M276.81 1069.37 C276.81 1080.04, 271.48 1085.37, 260.81 1085.37 M260.81 1085.37 C192.36 1085.37, 123.91 1085.37, -69.79 1085.37 M260.81 1085.37 C128.7 1085.37, -3.42 1085.37, -69.79 1085.37" stroke="#d3d3d3" stroke-width="2" fill="none"></path></g><g transform="translate(847.7844239336084 492.2555773135207) rotate(0 103.51355975489679 542.6851598038281)"><path d="M-46.29 1076.82 C-52.88 1079.22, -59.47 1081.62, -69.79 1085.37 M-46.29 1076.82 C-51.21 1078.61, -56.13 1080.4, -69.79 1085.37" stroke="#d3d3d3" stroke-width="2" fill="none"></path></g><g transform="translate(847.7844239336084 492.2555773135207) rotate(0 103.51355975489679 542.6851598038281)"><path d="M-46.29 1093.92 C-52.88 1091.52, -59.47 1089.13, -69.79 1085.37 M-46.29 1093.92 C-51.21 1092.13, -56.13 1090.34, -69.79 1085.37" stroke="#d3d3d3" stroke-width="2" fill="none"></path></g></g><mask></mask><g stroke-linecap="round" transform="translate(10 10) rotate(0 714.0612549521342 896.4344634860779)"><path d="M32 0 C305.26 0, 578.53 0, 1396.12 0 M32 0 C556.92 0, 1081.84 0, 1396.12 0 M1396.12 0 C1417.46 0, 1428.12 10.67, 1428.12 32 M1396.12 0 C1417.46 0, 1428.12 10.67, 1428.12 32 M1428.12 32 C1428.12 617.8, 1428.12 1203.6, 1428.12 1760.87 M1428.12 32 C1428.12 611.8, 1428.12 1191.59, 1428.12 1760.87 M1428.12 1760.87 C1428.12 1782.2, 1417.46 1792.87, 1396.12 1792.87 M1428.12 1760.87 C1428.12 1782.2, 1417.46 1792.87, 1396.12 1792.87 M1396.12 1792.87 C1041.76 1792.87, 687.4 1792.87, 32 1792.87 M1396.12 1792.87 C1075.25 1792.87, 754.38 1792.87, 32 1792.87 M32 1792.87 C10.67 1792.87, 0 1782.2, 0 1760.87 M32 1792.87 C10.67 1792.87, 0 1782.2, 0 1760.87 M0 1760.87 C0 1099.45, 0 438.03, 0 32 M0 1760.87 C0 1244.99, 0 729.11, 0 32 M0 32 C0 10.67, 10.67 0, 32 0 M0 32 C0 10.67, 10.67 0, 32 0" stroke="#d3d3d3" stroke-width="2" fill="none"></path></g></svg>